#!OML:ASF X:\für Bonn\!DataBase\2005_08_10_Bjorn_Final\c3d\bjorn.ASF
:FULLY-SPECIFIED
:DEGREES
648
root 0.0197541 1.68991 11.7461 -2069.71 -9.19746 190.732
lowerback -2.89502 -0.730467 -8.46664
upperback 2.49213 -0.604691 -4.68395
thorax 4.26114 -0.570347 -0.180598
lowerneck -17.323 -5.89296 0.520627
upperneck 10.5188 -9.00497 4.5283
head 6.20663 -4.11956 0.416212
rclavicle 3.18055e-015 -1.2921e-015
rhumerus -56.1322 38.9387 -102.572
rradius 108.144
rwrist -31.0924
rhand 1.17846 10.2884
rfingers 7.12502
rthumb 26.7186 -17.8453
lclavicle 3.18055e-015 -1.2921e-015
lhumerus -53.7914 -54.3763 102.239
lradius 110.227
lwrist 34.8273
lhand 9.84942 -12.7723
lfingers 7.12502
lthumb 34.9835 733.788
rfemur -365.848 -19.9126 365.922
rtibia 24.2678
rfoot 10.9994 -5.98378
rtoes 11.1561
lfemur -27.1787 -17.0945 -21.2381
ltibia 52.3524
lfoot 21.4613 1.62385
ltoes -15.2855
649
root 0.0164992 1.69059 11.7399 -2069.69 -9.19888 190.798
lowerback -2.9385 -0.75767 -8.48179
upperback 2.49724 -0.632461 -4.6683
thorax 4.29358 -0.584755 -0.158813
lowerneck -17.2575 -5.87136 0.533341
upperneck 10.4453 -8.96611 4.49731
head 6.16933 -4.10484 0.412149
rclavicle -7.95139e-015 -1.26228e-014
rhumerus -56.2691 39.0945 -102.723
rradius 108.258
rwrist -31.31
rhand 1.42198 10.2867
rfingers 7.12502
rthumb 26.9517 -17.8112
lclavicle -7.95139e-015 -1.26228e-014
lhumerus -54.1484 -54.5952 102.59
lradius 110.316
lwrist 34.9717
lhand 10.2114 -12.6922
lfingers 7.12502
lthumb 35.3269 733.787
rfemur -365.939 -20.0233 365.894
rtibia 24.4482
rfoot 10.8914 -5.99245
rtoes 10.986
lfemur -26.796 -17.133 -21.2233
ltibia 51.3236
lfoot 21.2177 1.49164
ltoes -15.439
650
root 0.0132496 1.69076 11.7336 -2069.67 -9.21465 190.855
lowerback -2.98367 -0.780522 -8.49485
upperback 2.49958 -0.65526 -4.67126
thorax 4.32349 -0.596805 -0.157292
lowerneck -17.2062 -5.85135 0.530436
upperneck 10.3661 -8.93271 4.50206
head 6.13524 -4.09094 0.420676
rclavicle -1.74931e-014 -2.77305e-014
rhumerus -56.3822 39.2154 -102.893
rradius 108.36
rwrist -31.5297
rhand 1.65989 10.2413
rfingers 7.12502
rthumb 27.1793 -17.8212
lclavicle -1.74931e-014 -2.77305e-014
lhumerus -54.5387 -54.8349 102.932
lradius 110.412
lwrist 35.1025
lhand 10.4399 -12.5792
lfingers 7.12502
lthumb 35.5434 733.848
rfemur -366.049 -20.1198 365.855
rtibia 24.637
rfoot 10.7783 -5.97845
rtoes 10.6233
lfemur -26.4174 -17.1785 -21.216
ltibia 50.2787
lfoot 20.9299 1.39502
ltoes -15.5321
651
root 0.0107207 1.69096 11.7274 -2069.64 -9.21492 190.917
lowerback -3.01959 -0.8034 -8.51381
upperback 2.49921 -0.678619 -4.65082
thorax 4.34574 -0.608802 -0.127883
lowerneck -17.1269 -5.83723 0.516355
upperneck 10.2715 -8.89893 4.48779
head 6.09109 -4.07919 0.426181
rclavicle -3.81667e-014 3.60794e-014
rhumerus -56.5244 39.3435 -103.038
rradius 108.479
rwrist -31.7115
rhand 1.88914 10.2289
rfingers 7.12502
rthumb 27.3986 -17.7991
lclavicle -3.81667e-014 3.60794e-014
lhumerus -54.9181 -55.0514 103.292
lradius 110.476
lwrist 35.2493
lhand 10.5811 -12.5404
lfingers 7.12502
lthumb 35.6773 733.855
rfemur -366.154 -20.1583 365.839
rtibia 24.8334
rfoot 10.6065 -6.04605
rtoes 10.5964
lfemur -26.0199 -17.2326 -21.1858
ltibia 49.2172
lfoot 20.606 1.27673
ltoes -15.6408
652
root 0.0081753 1.69183 11.7203 -2069.63 -9.23024 190.976
lowerback -3.06933 -0.825926 -8.5366
upperback 2.51448 -0.699051 -4.65069
thorax 4.39201 -0.620856 -0.118145
lowerneck -17.0933 -5.81536 0.551854
upperneck 10.1977 -8.86677 4.45674
head 6.05823 -4.06664 0.41683
rclavicle 6.36111e-015 -2.37548e-014
rhumerus -56.6138 39.4691 -103.177
rradius 108.582
rwrist -31.8502
rhand 2.08621 10.2321
rfingers 7.12502
rthumb 27.587 -17.7659
lclavicle 6.36111e-015 -2.37548e-014
lhumerus -55.2735 -55.2844 103.609
lradius 110.536
lwrist 35.4195
lhand 10.646 -12.5344
lfingers 7.12502
lthumb 35.7388 733.846
rfemur -366.258 -20.244 365.8
rtibia 25.0408
rfoot 10.4799 -6.05097
rtoes 10.3478
lfemur -25.6012 -17.2569 -21.1802
ltibia 48.1454
lfoot 20.321 1.0636
ltoes -15.6096
653
root 0.00542287 1.69177 11.7132 -2069.6 -9.23047 191.042
lowerback -3.10651 -0.845093 -8.53138
upperback 2.50923 -0.71926 -4.65169
thorax 4.40892 -0.630444 -0.124146
lowerneck -17.0269 -5.80887 0.538353
upperneck 10.1407 -8.85121 4.46493
head 6.02983 -4.06144 0.426126
rclavicle 1.59028e-015 2.17669e-014
rhumerus -56.7366 39.5597 -103.342
rradius 108.691
rwrist -31.9914
rhand 2.28524 10.1915
rfingers 7.12502
rthumb 27.7774 -17.776
lclavicle 1.59028e-015 2.17669e-014
lhumerus -55.6613 -55.5316 103.934
lradius 110.592
lwrist 35.5959
lhand 10.6992 -12.5374
lfingers 7.12502
lthumb 35.7892 733.831
rfemur -366.38 -20.3465 365.775
rtibia 25.2606
rfoot 10.3534 -6.07125
rtoes 10.2656
lfemur -25.1921 -17.3108 -21.1454
ltibia 47.0672
lfoot 20.0907 0.964165
ltoes -15.0513
654
root 0.00303825 1.69187 11.7055 -2069.59 -9.24668 191.106
lowerback -3.13756 -0.864556 -8.55369
upperback 2.51228 -0.738963 -4.64991
thorax 4.43162 -0.641163 -0.112219
lowerneck -16.9597 -5.7933 0.521864
upperneck 10.0504 -8.82378 4.4903
head 5.99145 -4.0502 0.443087
rclavicle -1.43125e-014 1.54058e-014
rhumerus -56.8404 39.6582 -103.483
rradius 108.798
rwrist -32.0832
rhand 2.45194 10.1686
rfingers 7.12502
rthumb 27.9367 -17.773
lclavicle -1.43125e-014 1.54058e-014
lhumerus -56.0186 -55.7747 104.231
lradius 110.64
lwrist 35.8196
lhand 10.7294 -12.5543
lfingers 7.12502
lthumb 35.8178 733.807
rfemur -366.496 -20.4243 365.737
rtibia 25.4897
rfoot 10.2171 -6.06585
rtoes 9.96435
lfemur -24.765 -17.3379 -21.13
ltibia 45.9865
lfoot 19.9343 0.867672
ltoes -14.3324
655
root 8.59952e-005 1.69209 11.6973 -2069.54 -9.27673 191.152
lowerback -3.19957 -0.877861 -8.56414
upperback 2.50391 -0.748729 -4.67192
thorax 4.45874 -0.64671 -0.131353
lowerneck -16.8795 -5.77856 0.564901
upperneck 9.96762 -8.80253 4.45948
head 5.94809 -4.04412 0.432955
rclavicle 1.27222e-014 8.94531e-016
rhumerus -56.9764 39.7367 -103.669
rradius 108.929
rwrist -32.1677
rhand 2.5999 10.0924
rfingers 7.12502
rthumb 28.0782 -17.8261
lclavicle 1.27222e-014 8.94531e-016
lhumerus -56.4235 -56.0259 104.534
lradius 110.692
lwrist 36.057
lhand 10.7353 -12.5681
lfingers 7.12502
lthumb 35.8234 733.792
rfemur -366.659 -20.4779 365.692
rtibia 25.7344
rfoot 10.0714 -6.11532
rtoes 9.8458
lfemur -24.358 -17.3564 -21.1247
ltibia 44.9073
lfoot 19.7597 0.792436
ltoes -13.7255
656
root -0.00217028 1.69219 11.6896 -2069.53 -9.29137 191.217
lowerback -3.23695 -0.902428 -8.59018
upperback 2.51568 -0.773319 -4.66969
thorax 4.4947 -0.660486 -0.117712
lowerneck -16.8255 -5.75968 0.579131
upperneck 9.88822 -8.77357 4.45469
head 5.91256 -4.03263 0.435324
rclavicle 3.49861e-014 3.95581e-014
rhumerus -57.0548 39.8471 -103.778
rradius 109.044
rwrist -32.2159
rhand 2.7898 10.0654
rfingers 7.12502
rthumb 28.2597 -17.8233
lclavicle 3.49861e-014 3.95581e-014
lhumerus -56.745 -56.2539 104.783
lradius 110.719
lwrist 36.2527
lhand 10.7284 -12.6285
lfingers 7.12502
lthumb 35.8169 733.733
rfemur -366.783 -20.5416 365.657
rtibia 25.9858
rfoot 9.91127 -6.13722
rtoes 9.75842
lfemur -23.9179 -17.3927 -21.1033
ltibia 43.8345
lfoot 19.5797 0.713093
ltoes -13.2089
657
root -0.00423289 1.69181 11.68 -2069.51 -9.32165 191.273
lowerback -3.26868 -0.925562 -8.62187
upperback 2.51782 -0.797422 -4.67411
thorax 4.51728 -0.673682 -0.107539
lowerneck -16.7935 -5.75329 0.544042
upperneck 9.84043 -8.75672 4.47882
head 5.89446 -4.02541 0.451813
rclavicle -9.54166e-015 -3.77691e-015
rhumerus -57.1428 39.9594 -103.889
rradius 109.165
rwrist -32.2498
rhand 2.95414 10.0182
rfingers 7.12502
rthumb 28.4167 -17.8444
lclavicle -9.54166e-015 -3.77691e-015
lhumerus -57.0701 -56.484 105.026
lradius 110.743
lwrist 36.4618
lhand 10.7108 -12.7032
lfingers 7.12502
lthumb 35.8002 733.662
rfemur -366.923 -20.6182 365.601
rtibia 26.2475
rfoot 9.77331 -6.15322
rtoes 9.82929
lfemur -23.4786 -17.3992 -21.0984
ltibia 42.773
lfoot 19.4338 0.648839
ltoes -12.8346
658
root -0.00668013 1.69193 11.6715 -2069.48 -9.33762 191.322
lowerback -3.32333 -0.938878 -8.63569
upperback 2.51873 -0.806863 -4.67884
thorax 4.55032 -0.679473 -0.106908
lowerneck -16.7404 -5.74427 0.537011
upperneck 9.77397 -8.7406 4.49404
head 5.86536 -4.01935 0.462044
rclavicle -4.77083e-015 1.0635e-014
rhumerus -57.2206 40.0269 -103.979
rradius 109.287
rwrist -32.2447
rhand 3.17309 9.9727
rfingers 7.12502
rthumb 28.6259 -17.8548
lclavicle -4.77083e-015 1.0635e-014
lhumerus -57.3804 -56.7312 105.262
lradius 110.765
lwrist 36.6999
lhand 10.6831 -12.7779
lfingers 7.12502
lthumb 35.7739 733.594
rfemur -367.08 -20.6949 365.57
rtibia 26.5079
rfoot 9.64735 -6.14366
rtoes 9.85551
lfemur -23.0539 -17.3998 -21.0749
ltibia 41.728
lfoot 19.2982 0.547282
ltoes -12.6096
659
root -0.00899651 1.69171 11.661 -2069.47 -9.36779 191.381
lowerback -3.35178 -0.962553 -8.66932
upperback 2.5234 -0.831696 -4.68087
thorax 4.57386 -0.693172 -0.09328
lowerneck -16.6577 -5.73077 0.511097
upperneck 9.67196 -8.71264 4.51916
head 5.82118 -4.00869 0.48098
rclavicle -2.06736e-014 -1.49089e-015
rhumerus -57.2788 40.1174 -104.058
rradius 109.374
rwrist -32.189
rhand 3.3862 9.94212
rfingers 7.12502
rthumb 28.8295 -17.8508
lclavicle -2.06736e-014 -1.49089e-015
lhumerus -57.7022 -56.9597 105.496
lradius 110.799
lwrist 36.9441
lhand 10.6007 -12.8967
lfingers 7.12502
lthumb 35.6958 733.494
rfemur -367.21 -20.7852 365.508
rtibia 26.7669
rfoot 9.52715 -6.15241
rtoes 10.0952
lfemur -22.6087 -17.3827 -21.074
ltibia 40.7007
lfoot 19.1778 0.481979
ltoes -12.5339
660
root -0.0112892 1.69149 11.6525 -2069.43 -9.38272 191.434
lowerback -3.40533 -0.97867 -8.68658
upperback 2.53057 -0.844126 -4.6817
thorax 4.61325 -0.70084 -0.0871301
lowerneck -16.6345 -5.72202 0.506235
upperneck 9.60911 -8.69494 4.51857
head 5.7972 -4.00202 0.485201
rclavicle 1.43125e-014 1.63003e-014
rhumerus -57.3125 40.1913 -104.099
rradius 109.473
rwrist -32.1236
rhand 3.57118 9.93813
rfingers 7.12502
rthumb 29.0062 -17.8246
lclavicle 1.43125e-014 1.63003e-014
lhumerus -57.9604 -57.2083 105.681
lradius 110.808
lwrist 37.1458
lhand 10.5584 -13.0462
lfingers 7.12502
lthumb 35.6558 733.354
rfemur -367.358 -20.908 365.475
rtibia 26.9955
rfoot 9.46527 -6.13005
rtoes 9.90387
lfemur -22.1898 -17.3935 -21.0434
ltibia 39.7022
lfoot 19.07 0.449071
ltoes -12.4538
661
root -0.0131588 1.69127 11.6449 -2069.42 -9.412 191.491
lowerback -3.43571 -0.995774 -8.7154
upperback 2.52736 -0.861102 -4.68624
thorax 4.62896 -0.710212 -0.0780379
lowerneck -16.5667 -5.72205 0.461759
upperneck 9.54263 -8.68622 4.55882
head 5.7687 -3.99935 0.508596
rclavicle 1.59028e-015 4.47266e-015
rhumerus -57.3868 40.2318 -104.156
rradius 109.574
rwrist -32.043
rhand 3.81273 9.91594
rfingers 7.12502
rthumb 29.2369 -17.8068
lclavicle 1.59028e-015 4.47266e-015
lhumerus -58.2906 -57.4451 105.905
lradius 110.843
lwrist 37.3562
lhand 10.4779 -13.1845
lfingers 7.12502
lthumb 35.5795 733.234
rfemur -367.463 -20.9675 365.424
rtibia 27.1927
rfoot 9.35987 -6.14525
rtoes 9.83594
lfemur -21.7505 -17.3864 -21.0337
ltibia 38.7349
lfoot 18.984 0.397112
ltoes -12.6465
